<?xml version="1.0" encoding="UTF-8" standalone="no"?>
<!-- Generator: Adobe Illustrator 16.2.1, SVG Export Plug-In . SVG Version: 6.00 Build 0)  -->

<svg
   xmlns:dc="http://purl.org/dc/elements/1.1/"
   xmlns:cc="http://creativecommons.org/ns#"
   xmlns:rdf="http://www.w3.org/1999/02/22-rdf-syntax-ns#"
   xmlns:svg="http://www.w3.org/2000/svg"
   xmlns="http://www.w3.org/2000/svg"
   xmlns:sodipodi="http://sodipodi.sourceforge.net/DTD/sodipodi-0.dtd"
   xmlns:inkscape="http://www.inkscape.org/namespaces/inkscape"
   version="1.1"
   id="Layer_1"
   x="0px"
   y="0px"
   width="512px"
   height="512px"
   viewBox="0 0 512 512"
   style="enable-background:new 0 0 512 512;"
   xml:space="preserve"
   inkscape:version="0.91 r13725"
   sodipodi:docname="check.svg"><metadata
     id="metadata9"><rdf:RDF><cc:Work
         rdf:about=""><dc:format>image/svg+xml</dc:format><dc:type
           rdf:resource="http://purl.org/dc/dcmitype/StillImage" /><dc:title></dc:title></cc:Work></rdf:RDF></metadata><defs
     id="defs7" /><sodipodi:namedview
     pagecolor="#ffffff"
     bordercolor="#666666"
     borderopacity="1"
     objecttolerance="10"
     gridtolerance="10"
     guidetolerance="10"
     inkscape:pageopacity="0"
     inkscape:pageshadow="2"
     inkscape:window-width="1600"
     inkscape:window-height="838"
     id="namedview5"
     showgrid="false"
     inkscape:zoom="0.4609375"
     inkscape:cx="256"
     inkscape:cy="256"
     inkscape:window-x="-8"
     inkscape:window-y="-8"
     inkscape:window-maximized="1"
     inkscape:current-layer="Layer_1" /><path
     d="M461.6,109.6l-54.9-43.3c-1.7-1.4-3.8-2.4-6.2-2.4c-2.4,0-4.6,1-6.3,2.5L194.5,323c0,0-78.5-75.5-80.7-77.7  c-2.2-2.2-5.1-5.9-9.5-5.9c-4.4,0-6.4,3.1-8.7,5.4c-1.7,1.8-29.7,31.2-43.5,45.8c-0.8,0.9-1.3,1.4-2,2.1c-1.2,1.7-2,3.6-2,5.7  c0,2.2,0.8,4,2,5.7l2.8,2.6c0,0,139.3,133.8,141.6,136.1c2.3,2.3,5.1,5.2,9.2,5.2c4,0,7.3-4.3,9.2-6.2L462,121.8  c1.2-1.7,2-3.6,2-5.8C464,113.5,463,111.4,461.6,109.6z"
     id="path3" /><path
     style="fill:#9db63b;fill-opacity:1"
     d="M 153.1661,401.62497 C 70.054387,321.81947 49.030508,300.95696 49.030508,298.28873 c 0,-3.60594 51.754382,-57.90907 55.191062,-57.90907 1.52206,0 22.08269,18.54915 45.69029,41.22034 23.60761,22.67119 43.65233,41.22034 44.54384,41.22034 0.8915,0 46.25452,-57.35593 100.80669,-127.45763 54.55217,-70.10169 100.59727,-128.267716 102.3224,-129.257826 3.91899,-2.249214 7.77275,0.254958 40.45868,26.290022 18.06184,14.386654 25.45145,21.569894 24.79036,24.097964 -0.91346,3.49306 -239.67141,312.03805 -250.73466,324.02238 -3.02916,3.28136 -7.03339,5.95083 -8.89828,5.93218 -1.8649,-0.0187 -24.38055,-20.18877 -50.03479,-44.82246 z"
     id="path4137"
     inkscape:connector-curvature="0" /></svg>